<svg width="69" height="69" viewBox="0 0 69 69" fill="none" xmlns="http://www.w3.org/2000/svg">
<path d="M20.9371 21.2293C13.6928 28.4736 13.6928 40.2155 20.9371 47.4597C28.1813 54.704 39.9233 54.704 47.1675 47.4597C54.4118 40.2155 54.4118 28.4736 47.1675 21.2293C39.9233 13.9851 28.1813 13.9851 20.9371 21.2293Z" fill="#F83B66"/>
<path d="M62.4528 10.5148C62.4528 5.92489 58.7339 2.206 54.144 2.206C52.4021 2.206 50.7892 2.74517 49.4528 3.65761C36.6648 -2.80322 20.6279 -0.706445 9.96429 9.96176C-3.32143 23.2475 -3.32143 44.8696 9.96429 58.1599C16.6095 64.8051 25.333 68.1277 34.0611 68.1277C42.7892 68.1277 51.5173 64.8051 58.1579 58.1599C70.1532 46.1645 71.3145 27.3719 61.6509 14.0585C62.1579 12.9802 62.4528 11.782 62.4528 10.5148ZM53.9459 53.9433C42.9827 64.9065 25.144 64.9065 14.1809 53.9433C3.21774 42.9802 3.21774 25.1415 14.1809 14.1784C19.6648 8.69448 26.8629 5.95715 34.0657 5.95715C38.1717 5.95715 42.2731 6.85116 46.0611 8.62996C45.9182 9.23826 45.8399 9.86499 45.8399 10.5148C45.8399 15.1046 49.5588 18.8235 54.1486 18.8235C55.2592 18.8235 56.3191 18.6023 57.2869 18.206C64.7569 29.1461 63.6509 44.2383 53.9459 53.9433Z" fill="#F83B66"/>
</svg>
