<svg width="85" height="85" viewBox="0 0 85 85" fill="none" xmlns="http://www.w3.org/2000/svg">
<path d="M52.2863 0H32.7137C14.648 0 0 14.648 0 32.7137V52.2863C0 70.352 14.648 85 32.7137 85H52.2863C70.352 85 85 70.352 85 52.2863V32.7137C85 14.648 70.352 0 52.2863 0ZM35.4326 73.1309C32.0477 73.2073 28.7719 73.0217 25.6545 72.6013C22.952 72.241 20.3041 71.9134 17.962 71.018C15.3796 70.0299 13.4142 67.584 13.4142 64.8433C13.4142 61.2946 16.3023 58.6467 19.8401 58.4174C20.7027 58.3628 22.3023 58.9142 22.5153 59.007C22.679 59.0834 22.8428 59.1653 22.9957 59.2527C25.0103 60.3009 27.2596 61.1908 29.7055 61.8569C30.7101 62.1299 31.7528 62.3646 32.8175 62.5612C46.0897 64.9907 58.7559 60.2463 61.098 51.9642C61.9169 49.0706 61.371 46.1333 59.744 43.4254C59.3455 42.7593 58.8814 42.1096 58.3573 41.4818C54.9014 37.3161 48.814 33.9476 41.3125 32.5772C40.0951 32.3589 38.8885 32.1951 37.6928 32.0968C47.7712 32.3534 56.7304 34.9576 62.8724 38.9922C63.8933 39.6637 64.8433 40.379 65.7004 41.1324C69.2109 44.1897 71.2746 47.8476 71.3565 51.8058C71.6022 63.1344 55.5074 72.6832 35.4326 73.1309ZM64.9415 26.5717C64.0789 26.6263 62.4793 26.0749 62.2664 25.9821C62.1026 25.9056 61.9388 25.8237 61.7859 25.7364C59.7713 24.6882 57.522 23.7983 55.0761 23.1322C54.0715 22.8592 53.0288 22.6244 51.9642 22.4279C38.6919 19.9984 26.0258 24.7428 23.6836 33.0249C22.8647 35.9185 23.4106 38.8557 25.0376 41.5637C25.4361 42.2297 25.9002 42.8794 26.4243 43.5073C29.8802 47.6729 35.9676 51.0415 43.4691 52.4118C44.6866 52.6302 45.8931 52.794 47.0888 52.8923C37.0104 52.6357 28.0513 50.0315 21.9092 45.9968C20.8883 45.3253 19.9383 44.6101 19.0812 43.8567C15.5707 40.7993 13.507 37.1414 13.4251 33.1832C13.1903 21.8437 29.2851 12.2949 49.3599 11.8473C52.7449 11.7708 56.0206 11.9565 59.138 12.3768C61.8405 12.7372 64.4884 13.0647 66.8306 13.9601C69.4129 14.9483 71.3784 17.3942 71.3784 20.1349C71.3675 23.6945 68.4848 26.3369 64.9415 26.5717Z" fill="#0A77F3"/>
</svg>
