<svg width="66" height="58" viewBox="0 0 66 58" fill="none" xmlns="http://www.w3.org/2000/svg">
<path d="M60.6445 0L65.918 6.44531C52.5716 17.3177 45.8984 26.3997 45.8984 33.6914C45.8984 34.5378 45.9635 35.5794 46.0938 36.8164C47.2656 36.2956 48.3724 35.9375 49.4141 35.7422C50.4557 35.4818 51.4323 35.3516 52.3438 35.3516C55.4036 35.3516 57.8776 36.3607 59.7656 38.3789C61.6536 40.3971 62.5977 42.9688 62.5977 46.0938C62.5977 49.1536 61.4583 51.8229 59.1797 54.1016C56.901 56.3802 54.1667 57.5195 50.9766 57.5195C46.6146 57.5195 42.8385 55.7617 39.6484 52.2461C36.4583 48.6654 34.8633 44.0755 34.8633 38.4766C34.8633 34.8307 35.612 31.0221 37.1094 27.0508C38.6068 23.0143 40.7878 19.3034 43.6523 15.918C46.5169 12.4674 52.181 7.16146 60.6445 0ZM25.7812 0L31.0547 6.44531C17.7083 17.3177 11.0352 26.3997 11.0352 33.6914C11.0352 34.5378 11.1003 35.5794 11.2305 36.8164C12.4023 36.2956 13.5091 35.9375 14.5508 35.7422C15.5924 35.4818 16.569 35.3516 17.4805 35.3516C20.5404 35.3516 23.0143 36.3607 24.9023 38.3789C26.8555 40.3971 27.832 42.9688 27.832 46.0938C27.832 49.1536 26.6602 51.8229 24.3164 54.1016C22.0378 56.3802 19.3034 57.5195 16.1133 57.5195C11.7513 57.5195 7.97526 55.7617 4.78516 52.2461C1.59505 48.6654 0 44.0755 0 38.4766C0 34.8307 0.748698 31.0221 2.24609 27.0508C3.74349 23.0143 5.92448 19.3034 8.78906 15.918C11.6536 12.4674 17.3177 7.16146 25.7812 0Z" fill="#3D3D3D"/>
</svg>
