<svg width="42" height="42" viewBox="0 0 42 42" fill="none" xmlns="http://www.w3.org/2000/svg">
<mask id="mask0_754_267" style="mask-type:alpha" maskUnits="userSpaceOnUse" x="0" y="0" width="42" height="42">
<rect width="42" height="42" fill="#FFA600"/>
</mask>
<g mask="url(#mask0_754_267)">
<path d="M21 29.75C21.4958 29.75 21.9115 29.5823 22.2469 29.2469C22.5823 28.9115 22.75 28.4958 22.75 28C22.75 27.5042 22.5823 27.0885 22.2469 26.7531C21.9115 26.4177 21.4958 26.25 21 26.25C20.5042 26.25 20.0885 26.4177 19.7531 26.7531C19.4177 27.0885 19.25 27.5042 19.25 28C19.25 28.4958 19.4177 28.9115 19.7531 29.2469C20.0885 29.5823 20.5042 29.75 21 29.75ZM19.25 22.75H22.75V12.25H19.25V22.75ZM14.4375 36.75L5.25 27.5625V14.4375L14.4375 5.25H27.5625L36.75 14.4375V27.5625L27.5625 36.75H14.4375ZM15.925 33.25H26.075L33.25 26.075V15.925L26.075 8.75H15.925L8.75 15.925V26.075L15.925 33.25Z" fill="#FFA600"/>
</g>
</svg>
