<svg width="129" height="30" viewBox="0 0 129 30" fill="none" xmlns="http://www.w3.org/2000/svg">
<path d="M28.1045 15.0089V11.3466H29.7055V10.6562C29.7055 8.13792 30.3828 6.36757 31.7372 5.3435C32.9684 4.41148 34.8505 3.94629 37.3836 3.94629C37.64 3.94629 37.9063 3.95122 38.1841 3.96108L37.908 7.79273C36.1031 7.79273 34.9459 7.98834 34.438 8.37791C33.93 8.76749 33.6769 9.52692 33.6769 10.6545V11.3466H37.308V15.0089H33.6769V25.6869H29.7072V15.0089H28.1045Z" fill="white"/>
<path d="M39.3516 8.10015V4.12878H43.3213V8.09851H39.3516V8.10015ZM39.3516 25.6869V9.57626H43.3213V25.6869H39.3516Z" fill="white"/>
<path d="M45.3379 25.6869V9.57621H49.3076V11.1246C50.4254 10.0102 52.01 9.44307 54.063 9.42334L53.8017 13.6084C52.0576 13.6084 50.8725 13.9109 50.2478 14.5174C49.6216 15.124 49.3092 16.1152 49.3092 17.491V25.6869H45.3379Z" fill="white"/>
<path d="M53.9395 17.7164C53.9395 15.4085 54.7581 13.4491 56.3936 11.8382C58.0292 10.2273 60.028 9.42188 62.3868 9.42188C64.8689 9.42188 66.8957 10.252 68.4655 11.9138C70.0353 13.5757 70.8194 15.591 70.8194 17.9613C70.8194 18.2177 70.7996 18.5761 70.7585 19.038H57.9716C58.3102 20.0851 58.8823 20.8971 59.6877 21.4773C60.4932 22.0576 61.4959 22.3469 62.6958 22.3469C63.6805 22.3469 64.504 22.1825 65.1648 21.8538C65.8272 21.525 66.419 21.0072 66.9417 20.3004L70.2654 22.1316C68.5427 24.737 66.0179 26.0405 62.6942 26.0405C60.171 26.0405 58.0801 25.2498 56.4232 23.6701C54.7663 22.0905 53.9395 20.1064 53.9395 17.7164ZM58.0637 15.9164H66.6343C65.8338 14.0294 64.4185 13.0859 62.3868 13.0859C61.4433 13.0859 60.5819 13.3472 59.8012 13.8699C59.022 14.3927 58.4434 15.0748 58.0637 15.9164Z" fill="white"/>
<path d="M70.376 9.57654H74.3457L77.2535 20.0096L80.1778 9.57654H84.2396L87.1474 20.0096L90.0717 9.57654H93.8885L89.3254 25.6872H84.7524L82.1043 16.1007L79.4562 25.6872H74.9457L70.376 9.57654Z" fill="white"/>
<path d="M93.3779 17.7164C93.3779 15.4085 94.1965 13.4491 95.8321 11.8382C97.4676 10.2273 99.4665 9.42188 101.825 9.42188C104.307 9.42188 106.334 10.252 107.904 11.9138C109.474 13.5757 110.258 15.591 110.258 17.9613C110.258 18.2177 110.238 18.5761 110.197 19.038H97.4101C97.7487 20.0851 98.3208 20.8971 99.1262 21.4773C99.9317 22.0576 100.934 22.3469 102.134 22.3469C103.119 22.3469 103.942 22.1825 104.603 21.8538C105.266 21.525 105.857 21.0072 106.38 20.3004L109.704 22.1316C107.981 24.737 105.456 26.0405 102.133 26.0405C99.6095 26.0405 97.5186 25.2498 95.8617 23.6701C94.2048 22.0905 93.3779 20.1064 93.3779 17.7164ZM97.5022 15.9164H106.073C105.272 14.0294 103.857 13.0859 101.825 13.0859C100.882 13.0859 100.02 13.3472 99.2396 13.8699C98.4605 14.3927 97.8819 15.0748 97.5022 15.9164Z" fill="white"/>
<path d="M111.782 25.6869V4.12878H115.721V10.8683C117.085 9.90338 118.638 9.42175 120.382 9.42175C122.731 9.42175 124.727 10.2272 126.367 11.8381C128.008 13.449 128.83 15.4084 128.83 17.7163C128.83 20.0044 128.005 21.9638 126.353 23.5944C124.701 25.225 122.712 26.0403 120.382 26.0403C118.66 26.0403 117.105 25.5637 115.721 24.6086V25.6853H111.782V25.6869ZM117.09 14.4698C116.178 15.3936 115.721 16.4752 115.721 17.7163C115.721 18.9573 116.178 20.0389 117.09 20.9627C118.002 21.8865 119.1 22.3468 120.382 22.3468C121.665 22.3468 122.763 21.8849 123.675 20.9627C124.587 20.0389 125.044 18.9573 125.044 17.7163C125.044 16.4752 124.587 15.3936 123.675 14.4698C122.763 13.546 121.665 13.0857 120.382 13.0857C119.1 13.0857 118.004 13.546 117.09 14.4698Z" fill="white"/>
<path d="M12.2112 5.1065L10.9596 9.94714L9.66853 0L0 19.1603L6.78932 24.9569L9.66853 20.7894L12.6043 24.9569L19.3003 19.1448L12.2112 5.1065Z" fill="#ED1C24"/>
<path d="M2.7207 26.5847H16.5808V29.9999H2.7207V26.5847Z" fill="#ED1C24"/>
</svg>
