<svg width="238" height="85" viewBox="0 0 238 85" fill="none" xmlns="http://www.w3.org/2000/svg">
<path d="M146.763 24.8705C143.149 22.3134 139.038 21.0348 134.421 21.0348C128.157 21.0348 122.855 23.1699 118.514 27.4401C114.173 31.7103 112 36.9081 112 43.0251C112 49.092 114.189 54.2856 118.568 58.6101C122.947 62.9346 128.224 65.099 134.4 65.099C138.971 65.0697 143.091 63.8079 146.763 61.3051V64.163H157.209V7H146.763V24.8705ZM143.074 51.6407C140.617 54.0892 137.726 55.3135 134.396 55.3135C131.065 55.3135 128.178 54.0892 125.717 51.6407C123.256 49.1923 122.032 46.3218 122.032 43.0293C122.032 39.7368 123.26 36.8663 125.717 34.4179C128.174 31.9694 131.07 30.7452 134.396 30.7452C137.721 30.7452 140.613 31.9694 143.074 34.4179C145.535 36.8663 146.759 39.7368 146.759 43.0293C146.763 46.3218 145.531 49.1923 143.074 51.6407Z" fill="#252525"/>
<path d="M173.083 21.4443H162.554V64.1673H173.083V21.4443Z" fill="#252525"/>
<path d="M167.818 7C164.91 7 162.554 9.35655 162.554 12.2646C162.554 15.1727 164.91 17.5293 167.818 17.5293C170.726 17.5293 173.083 15.1727 173.083 12.2646C173.079 9.35655 170.722 7 167.818 7Z" fill="#252525"/>
<path d="M232.735 7C229.827 7 227.471 9.35655 227.471 12.2646C227.471 15.1727 229.827 17.5293 232.735 17.5293C235.643 17.5293 238 15.1727 238 12.2646C237.996 9.35655 235.639 7 232.735 7Z" fill="#252525"/>
<path d="M238 21.4443H227.471V64.1673H238V21.4443Z" fill="#252525"/>
<path d="M203.94 71.0323C201.483 73.4807 198.591 74.705 195.261 74.705C191.935 74.705 189.044 73.4807 186.583 71.0323C185.229 69.6827 184.252 68.2078 183.641 66.5991H173.233C174.027 70.9069 176.087 74.7133 179.426 78.0058C183.804 82.3303 189.082 84.4947 195.261 84.4947C201.441 84.4947 206.718 82.3303 211.097 78.0058C214.435 74.7092 216.495 70.9069 217.289 66.5991H206.881C206.271 68.2078 205.293 69.6827 203.94 71.0323Z" fill="#252525"/>
<path d="M212.149 24.2856C208.669 22.1213 204.712 21.0349 200.275 21.0349C194.041 21.0349 188.751 23.17 184.401 27.4402C180.052 31.7104 177.875 36.9082 177.875 43.0252C177.875 49.0921 180.064 54.2857 184.443 58.6102C188.822 62.9347 194.099 65.0991 200.279 65.0991C206.459 65.0991 211.736 62.9347 216.115 58.6102C220.481 54.294 222.67 49.113 222.679 43.0628V21.1268H212.149V24.2856ZM208.953 51.6408C206.496 54.0893 203.605 55.3135 200.275 55.3135C196.949 55.3135 194.057 54.0893 191.596 51.6408C189.14 49.1923 187.911 46.3219 187.911 43.0294C187.911 39.7369 189.14 36.8664 191.596 34.4179C194.053 31.9695 196.949 30.7452 200.275 30.7452C203.601 30.7452 206.492 31.9695 208.953 34.4179C211.41 36.8664 212.638 39.7369 212.638 43.0294C212.638 46.3219 211.41 49.1923 208.953 51.6408Z" fill="#252525"/>
<path d="M26.1262 26.487C17.0869 35.5253 17.0869 50.1752 26.1262 59.2136C35.1655 68.2519 49.817 68.2519 58.8563 59.2136C67.8956 50.1752 67.8956 35.5253 58.8563 26.487C49.817 17.4487 35.1655 17.4487 26.1262 26.487Z" fill="#F83B66"/>
<path d="M77.9281 13.1188C77.9281 7.39224 73.2877 2.75233 67.5605 2.75233C65.3869 2.75233 63.3744 3.42503 61.7068 4.56345C45.75 -3.49746 25.7393 -0.881402 12.4334 12.4289C-4.14446 29.0049 -4.14446 55.9819 12.4334 72.5637C20.7252 80.8546 31.6103 85 42.5012 85C53.392 85 64.2829 80.8546 72.5689 72.5637C87.5367 57.5975 88.9858 34.1508 76.9276 17.5402C77.5601 16.1948 77.9281 14.6999 77.9281 13.1188ZM67.3133 67.3028C53.6335 80.981 31.3745 80.981 17.6948 67.3028C4.01508 53.6246 4.01508 31.368 17.6948 17.6897C24.5375 10.8477 33.5193 7.43248 42.5069 7.43248C47.6303 7.43248 52.748 8.5479 57.4747 10.7672C57.2964 11.5262 57.1987 12.3081 57.1987 13.1188C57.1987 18.8454 61.8391 23.4853 67.5663 23.4853C68.9521 23.4853 70.2746 23.2093 71.4822 22.7149C80.8032 36.3643 79.4232 55.1942 67.3133 67.3028Z" fill="#F83B66"/>
</svg>
