<svg width="361" height="85" viewBox="0 0 361 85" fill="none" xmlns="http://www.w3.org/2000/svg">
<path d="M87.0107 43.0145V33.0781H91.3552V31.2049C91.3552 24.3725 93.1928 19.5693 96.8682 16.7908C100.209 14.2621 105.316 13 112.19 13C112.885 13 113.608 13.0134 114.362 13.0401L113.612 23.436C108.715 23.436 105.575 23.9667 104.197 25.0237C102.818 26.0806 102.131 28.1411 102.131 31.2005V33.0781H111.984V43.0145H102.131V71.9855H91.3596V43.0145H87.0107Z" fill="#252525"/>
<path d="M117.529 24.2695V13.4946H128.301V24.2651H117.529V24.2695ZM117.529 71.9851V28.2744H128.301V71.9851H117.529Z" fill="#252525"/>
<path d="M133.772 71.9852V28.2746H144.544V32.4758C147.577 29.452 151.877 27.9134 157.448 27.8599L156.739 39.2145C152.007 39.2145 148.791 40.0351 147.096 41.6808C145.396 43.3265 144.549 46.0157 144.549 49.7486V71.9852H133.772Z" fill="#252525"/>
<path d="M157.112 50.3594C157.112 44.0979 159.334 38.7818 163.772 34.4111C168.21 30.0405 173.634 27.8552 180.034 27.8552C186.769 27.8552 192.269 30.1074 196.529 34.6163C200.788 39.1252 202.916 44.5929 202.916 51.0239C202.916 51.7197 202.862 52.6919 202.751 53.9451H168.054C168.972 56.786 170.525 58.9892 172.71 60.5635C174.896 62.1378 177.617 62.9227 180.873 62.9227C183.545 62.9227 185.779 62.4767 187.572 61.5848C189.37 60.6928 190.976 59.288 192.394 57.3702L201.413 62.3385C196.738 69.4073 189.887 72.9439 180.868 72.9439C174.022 72.9439 168.348 70.7987 163.852 66.5129C159.356 62.227 157.112 56.844 157.112 50.3594ZM168.303 45.4759H191.56C189.388 40.3561 185.547 37.7961 180.034 37.7961C177.474 37.7961 175.137 38.5053 173.018 39.9235C170.904 41.3417 169.334 43.1925 168.303 45.4759Z" fill="#252525"/>
<path d="M201.715 28.2754H212.487L220.377 56.5818L228.312 28.2754H239.334L247.224 56.5818L255.159 28.2754H265.516L253.134 71.986H240.725L233.54 45.9764L226.354 71.986H214.115L201.715 28.2754Z" fill="#252525"/>
<path d="M264.131 50.3594C264.131 44.0979 266.352 38.7818 270.79 34.4111C275.228 30.0405 280.652 27.8552 287.053 27.8552C293.788 27.8552 299.288 30.1074 303.547 34.6163C307.807 39.1252 309.935 44.5929 309.935 51.0239C309.935 51.7197 309.881 52.6919 309.77 53.9451H275.072C275.991 56.786 277.543 58.9892 279.729 60.5635C281.914 62.1378 284.635 62.9227 287.891 62.9227C290.563 62.9227 292.798 62.4767 294.591 61.5848C296.388 60.6928 297.994 59.288 299.413 57.3702L308.431 62.3385C303.757 69.4073 296.906 72.9439 287.887 72.9439C281.04 72.9439 275.367 70.7987 270.871 66.5129C266.374 62.227 264.131 56.844 264.131 50.3594ZM275.322 45.4759H298.578C296.406 40.3561 292.566 37.7961 287.053 37.7961C284.493 37.7961 282.155 38.5053 280.037 39.9235C277.922 41.3417 276.352 43.1925 275.322 45.4759Z" fill="#252525"/>
<path d="M314.07 71.9851V13.4946H324.757V31.7799C328.46 29.1619 332.675 27.8552 337.407 27.8552C343.781 27.8552 349.196 30.0405 353.647 34.4111C358.099 38.7818 360.329 44.0979 360.329 50.3594C360.329 56.5675 358.09 61.8836 353.607 66.3077C349.124 70.7318 343.727 72.9439 337.407 72.9439C332.733 72.9439 328.513 71.6506 324.757 69.0594V71.9806H314.07V71.9851ZM328.473 41.5513C325.997 44.0577 324.757 46.9923 324.757 50.3594C324.757 53.7266 325.997 56.6611 328.473 59.1676C330.948 61.674 333.928 62.9227 337.407 62.9227C340.886 62.9227 343.866 61.6695 346.341 59.1676C348.817 56.6611 350.057 53.7266 350.057 50.3594C350.057 46.9923 348.817 44.0577 346.341 41.5513C343.866 39.0449 340.886 37.7961 337.407 37.7961C333.928 37.7961 330.953 39.0449 328.473 41.5513Z" fill="#252525"/>
<path d="M34.5994 14.467L31.0533 28.1807L27.395 0L0 54.2822L19.237 70.7043L27.395 58.8975L35.7133 70.7043L54.6859 54.2381L34.5994 14.467Z" fill="#ED1C24"/>
<path d="M7.70996 75.3157H46.9814V84.991H7.70996V75.3157Z" fill="#ED1C24"/>
</svg>
