<svg width="132" height="46" viewBox="0 0 132 46" fill="none" xmlns="http://www.w3.org/2000/svg">
<path d="M56.8242 23.8372V11.9773H62.3549V22.4213C62.3549 25.0119 62.6823 26.8658 63.3371 27.9896C63.992 29.1112 65.306 29.6731 67.2794 29.6731C68.8058 29.6731 70.0115 29.2174 70.8986 28.3037C71.7835 27.3901 72.2282 26.1202 72.2282 24.4942V11.9773H77.7589V34.5976H72.2282V32.7747C70.6287 34.1352 68.5979 34.8144 66.1356 34.8144C59.928 34.8122 56.8242 31.1553 56.8242 23.8372Z" fill="#868686"/>
<path d="M79.4219 17.1189V11.9776H82.123V6.05762H87.698V11.9776H92.7972V17.1189H87.698V25.3064C87.698 26.8771 88.0475 27.9324 88.7466 28.4722C89.4456 29.012 91.0186 29.2973 93.4675 29.3261L93.8126 34.7262H92.6247C89.1957 34.7262 86.5896 34.0493 84.8043 32.6954C83.019 31.3415 82.1253 28.8792 82.1253 25.3064V17.1189H79.4219Z" fill="#868686"/>
<path d="M95.668 9.90447V4.32959H101.243V9.90447H95.668ZM95.668 34.5977V11.9774H101.243V34.5977H95.668Z" fill="#868686"/>
<path d="M104.07 34.5977V4.32959H109.645V34.5977H104.07Z" fill="#868686"/>
<path d="M111.59 27.3372H117.466C117.552 28.3173 117.966 29.1225 118.709 29.7574C119.45 30.3924 120.541 30.7087 121.981 30.7087C123.105 30.7087 123.996 30.4786 124.66 30.0163C125.321 29.5561 125.653 29.0008 125.653 28.3504C125.653 27.9323 125.534 27.5872 125.297 27.3129C125.06 27.0386 124.682 26.8196 124.162 26.6536C123.644 26.4877 123.229 26.3837 122.914 26.3395C122.6 26.2953 122.178 26.2377 121.649 26.1647C120.224 25.9457 119.512 25.8351 119.512 25.8351C119.512 25.8351 118.82 25.6426 117.43 25.2577C116.043 24.8728 115.045 24.4613 114.441 24.0211C113.838 23.5808 113.296 22.9326 112.822 22.0765C112.346 21.2203 112.11 20.2293 112.11 19.1054C112.11 16.8887 112.937 15.1079 114.594 13.7695C116.251 12.4311 118.532 11.7607 121.443 11.7607C124.308 11.7607 126.58 12.4266 128.259 13.7584C129.936 15.0902 130.87 16.8887 131.058 19.1497H125.397C125.339 18.5878 125.235 18.1165 125.082 17.7338C124.932 17.3533 124.56 16.9927 123.97 16.6542C123.379 16.3158 122.58 16.1476 121.572 16.1476C120.505 16.1476 119.667 16.3224 119.054 16.6719C118.441 17.0215 118.136 17.4883 118.136 18.0745C118.136 18.2736 118.165 18.4572 118.222 18.6209C118.28 18.7846 118.381 18.9307 118.528 19.059C118.674 19.1873 118.822 19.3045 118.974 19.4129C119.127 19.5191 119.337 19.6165 119.607 19.6983C119.875 19.7824 120.103 19.8532 120.288 19.9107C120.474 19.9682 120.726 20.039 121.047 20.1186C121.368 20.1983 121.627 20.2558 121.824 20.2912C122.021 20.3266 122.295 20.373 122.647 20.435L123.428 20.5722C124.724 20.7735 125.815 21.0168 126.7 21.2956C127.585 21.5743 128.463 21.9703 129.334 22.4747C130.206 22.9791 130.856 23.656 131.29 24.5078C131.724 25.3595 131.938 26.3882 131.938 27.5983C131.938 30.076 131.022 31.9454 129.195 33.2041C127.365 34.4651 124.932 35.0934 121.892 35.0934C118.709 35.0934 116.225 34.412 114.439 33.0515C112.656 31.6909 111.705 29.7862 111.59 27.3372Z" fill="#868686"/>
<path d="M38.022 8.36674L25.4562 1.14263C22.8056 -0.380878 19.5144 -0.380878 16.8638 1.14263L4.29624 8.36674C1.6456 9.89025 0 12.7289 0 15.7759V30.2241C0 33.2711 1.6456 36.1097 4.29624 37.6333L16.8638 44.8574C18.1882 45.6191 19.675 46 21.16 46C22.645 46 24.1318 45.6191 25.4562 44.8574L38.0238 37.6333C40.6744 36.1097 42.32 33.2711 42.32 30.2241V15.7759C42.3182 12.7289 40.6726 9.89025 38.022 8.36674ZM18.697 4.30644C19.4567 3.86986 20.3065 3.65248 21.1582 3.65248C22.0099 3.65248 22.8597 3.86986 23.6194 4.30644L33.6481 10.0717C34.4583 10.537 34.4547 11.7048 33.6409 12.1647L22.7497 18.3163C21.7627 18.8732 20.5537 18.8732 19.5667 18.3163L8.64119 12.1468C7.84185 11.6958 7.83824 10.5496 8.63397 10.0933L18.697 4.30644ZM6.13129 34.4695C4.61381 33.5963 3.67012 31.9704 3.67012 30.2241V19.7751C3.67012 18.4115 5.1461 17.5563 6.33699 18.2282L16.3008 23.8552C17.3113 24.4247 17.9338 25.4919 17.9338 26.6489V38.174C17.9338 39.543 16.4451 40.3982 15.2543 39.7137L6.13129 34.4695ZM36.1869 34.4695L27.008 39.7461C25.8424 40.4162 24.3844 39.579 24.3844 38.2387V26.6507C24.3844 25.4955 25.0087 24.4283 26.0192 23.857L36.0371 18.1977C37.2028 17.5384 38.6481 18.3774 38.6481 19.7122V30.2241C38.6481 31.9704 37.7062 33.5963 36.1869 34.4695Z" fill="#868686"/>
</svg>
