<svg width="196" height="46" viewBox="0 0 196 46" fill="none" xmlns="http://www.w3.org/2000/svg">
<path d="M47.0938 23.281V17.9031H49.4451V16.8893C49.4451 13.1913 50.4397 10.5917 52.4289 9.08786C54.2371 7.71924 57.0013 7.03613 60.7214 7.03613C61.098 7.03613 61.4891 7.04337 61.8971 7.05786L61.4915 12.6844C58.8408 12.6844 57.1413 12.9717 56.3953 13.5437C55.6494 14.1158 55.2776 15.231 55.2776 16.8869V17.9031H60.6104V23.281H55.2776V38.9611H49.4475V23.281H47.0938Z" fill="#868686"/>
<path d="M63.6113 13.1357V7.30396H69.4414V13.1333H63.6113V13.1357ZM63.6113 38.961V15.3033H69.4414V38.961H63.6113Z" fill="#868686"/>
<path d="M72.4023 38.961V15.3033H78.2324V17.5771C79.874 15.9406 82.2012 15.1078 85.2164 15.0789L84.8326 21.2244C82.2712 21.2244 80.5307 21.6685 79.6133 22.5592C78.6935 23.4499 78.2348 24.9054 78.2348 26.9258V38.961H72.4023Z" fill="#868686"/>
<path d="M85.0352 27.2562C85.0352 23.8672 86.2374 20.99 88.6394 18.6245C91.0415 16.2589 93.977 15.0762 97.4413 15.0762C101.087 15.0762 104.063 16.2951 106.369 18.7355C108.674 21.1758 109.826 24.1352 109.826 27.6159C109.826 27.9924 109.797 28.5186 109.736 29.1969H90.957C91.4543 30.7345 92.2944 31.9269 93.4773 32.779C94.6602 33.6311 96.1328 34.0559 97.8951 34.0559C99.3412 34.0559 100.551 33.8145 101.521 33.3318C102.494 32.849 103.363 32.0886 104.131 31.0507L109.012 33.7397C106.482 37.5656 102.774 39.4797 97.8927 39.4797C94.1871 39.4797 91.1163 38.3187 88.6829 35.999C86.2495 33.6793 85.0352 30.7659 85.0352 27.2562ZM91.0922 24.6131H103.679C102.504 21.8421 100.425 20.4565 97.4413 20.4565C96.0556 20.4565 94.7906 20.8403 93.6439 21.6079C92.4996 22.3755 91.6498 23.3772 91.0922 24.6131Z" fill="#868686"/>
<path d="M109.176 15.3037H115.006L119.276 30.6241L123.571 15.3037H129.536L133.807 30.6241L138.102 15.3037H143.707L137.006 38.9614H130.29L126.4 24.8841L122.511 38.9614H115.887L109.176 15.3037Z" fill="#868686"/>
<path d="M142.957 27.2565C142.957 23.8675 144.159 20.9902 146.561 18.6247C148.963 16.2592 151.899 15.0764 155.363 15.0764C159.008 15.0764 161.985 16.2954 164.291 18.7357C166.596 21.1761 167.748 24.1354 167.748 27.6161C167.748 27.9927 167.719 28.5189 167.658 29.1972H148.879C149.376 30.7347 150.216 31.9272 151.399 32.7792C152.582 33.6313 154.055 34.0561 155.817 34.0561C157.263 34.0561 158.473 33.8148 159.443 33.332C160.416 32.8492 161.285 32.0889 162.053 31.051L166.934 33.7399C164.404 37.5658 160.696 39.4799 155.815 39.4799C152.109 39.4799 149.038 38.3189 146.605 35.9992C144.171 33.6796 142.957 30.7661 142.957 27.2565ZM149.014 24.6133H161.601C160.426 21.8423 158.347 20.4568 155.363 20.4568C153.977 20.4568 152.712 20.8406 151.566 21.6082C150.421 22.3758 149.572 23.3775 149.014 24.6133Z" fill="#868686"/>
<path d="M169.986 38.9607V7.30371H175.771V17.2003C177.774 15.7834 180.056 15.0762 182.617 15.0762C186.067 15.0762 188.997 16.2589 191.407 18.6244C193.816 20.99 195.023 23.8672 195.023 27.2562C195.023 30.6162 193.811 33.4935 191.385 35.888C188.959 38.2824 186.038 39.4797 182.617 39.4797C180.087 39.4797 177.803 38.7797 175.771 37.3773V38.9583H169.986V38.9607ZM177.781 22.4889C176.442 23.8455 175.771 25.4338 175.771 27.2562C175.771 29.0786 176.442 30.6669 177.781 32.0235C179.121 33.38 180.734 34.0559 182.617 34.0559C184.5 34.0559 186.113 33.3776 187.452 32.0235C188.792 30.6669 189.463 29.0786 189.463 27.2562C189.463 25.4338 188.792 23.8455 187.452 22.4889C186.113 21.1324 184.5 20.4565 182.617 20.4565C180.734 20.4565 179.124 21.1324 177.781 22.4889Z" fill="#868686"/>
<path d="M18.7264 7.83002L16.8071 15.2524L14.8271 0L0 29.3794L10.4117 38.2676L14.8271 31.8773L19.3293 38.2676L29.5979 29.3555L18.7264 7.83002Z" fill="#868686"/>
<path d="M4.17383 40.7634H25.4289V46.0001H4.17383V40.7634Z" fill="#868686"/>
</svg>
