<svg width="244" height="85" viewBox="0 0 244 85" fill="none" xmlns="http://www.w3.org/2000/svg">
<path d="M105 44.0469V22.1318H115.22V41.4306C115.22 46.2175 115.825 49.6431 117.035 51.7198C118.245 53.7923 120.673 54.8306 124.319 54.8306C127.14 54.8306 129.368 53.9885 131.007 52.3003C132.642 50.612 133.464 48.2655 133.464 45.261V22.1318H143.684V63.9302H133.464V60.5618C130.508 63.0759 126.756 64.3308 122.206 64.3308C110.735 64.3267 105 57.5695 105 44.0469Z" fill="#252525"/>
<path d="M146.757 31.6322V22.132H151.748V11.1929H162.05V22.132H171.472V31.6322H162.05V46.7614C162.05 49.6637 162.695 51.6136 163.987 52.6111C165.279 53.6085 168.185 54.1359 172.711 54.189L173.348 64.1675H171.153C164.817 64.1675 160.002 62.9166 156.703 60.4148C153.404 57.913 151.752 53.3632 151.752 46.7614V31.6322H146.757Z" fill="#252525"/>
<path d="M176.778 18.3014V8H187.08V18.3014H176.778ZM176.778 63.9301V22.1317H187.08V63.9301H176.778Z" fill="#252525"/>
<path d="M192.304 63.9301V8H202.605V63.9301H192.304Z" fill="#252525"/>
<path d="M206.199 50.5141H217.057C217.216 52.325 217.98 53.813 219.354 54.9862C220.723 56.1594 222.739 56.744 225.4 56.744C227.477 56.744 229.124 56.3188 230.35 55.4645C231.573 54.6142 232.186 53.5881 232.186 52.3863C232.186 51.6137 231.965 50.976 231.528 50.4691C231.09 49.9622 230.391 49.5575 229.431 49.2509C228.474 48.9443 227.706 48.7522 227.125 48.6704C226.545 48.5887 225.764 48.4824 224.787 48.3475C222.154 47.9428 220.838 47.7384 220.838 47.7384C220.838 47.7384 219.558 47.3828 216.991 46.6715C214.428 45.9602 212.584 45.1999 211.468 44.3864C210.353 43.5729 209.351 42.3751 208.476 40.7931C207.597 39.2111 207.16 37.3798 207.16 35.3031C207.16 31.2071 208.689 27.9164 211.751 25.4432C214.812 22.9701 219.027 21.7314 224.407 21.7314C229.7 21.7314 233.899 22.9619 237.001 25.4228C240.1 27.8837 241.825 31.2071 242.173 35.3849H231.712C231.605 34.3466 231.413 33.4759 231.131 32.7687C230.853 32.0656 230.166 31.3992 229.075 30.7738C227.984 30.1484 226.508 29.8377 224.644 29.8377C222.673 29.8377 221.124 30.1606 219.992 30.8065C218.859 31.4524 218.295 32.3149 218.295 33.3982C218.295 33.7661 218.348 34.1054 218.455 34.4079C218.561 34.7104 218.749 34.9802 219.019 35.2173C219.289 35.4544 219.562 35.6711 219.845 35.8714C220.127 36.0676 220.515 36.2474 221.014 36.3987C221.508 36.554 221.929 36.6848 222.273 36.7911C222.616 36.8974 223.082 37.0282 223.675 37.1754C224.268 37.3225 224.746 37.4288 225.11 37.4942C225.474 37.5596 225.98 37.6455 226.63 37.76L228.073 38.0134C230.469 38.3854 232.484 38.8351 234.119 39.3501C235.755 39.8652 237.377 40.5969 238.988 41.529C240.599 42.461 241.801 43.7119 242.602 45.2857C243.403 46.8595 243.8 48.7604 243.8 50.9964C243.8 55.5748 242.107 59.0291 238.731 61.3551C235.35 63.6852 230.853 64.8461 225.236 64.8461C219.354 64.8461 214.763 63.5871 211.464 61.073C208.17 58.559 206.412 55.0393 206.199 50.5141Z" fill="#252525"/>
<path d="M70.258 15.4603L47.0387 2.11139C42.1408 -0.703796 36.0592 -0.703796 31.1613 2.11139L7.9387 15.4603C3.04078 18.2755 0 23.5207 0 29.1511V55.8489C0 61.4793 3.04078 66.7245 7.9387 69.5397L31.1613 82.8886C33.6086 84.2962 36.356 85 39.1 85C41.844 85 44.5914 84.2962 47.0387 82.8886L70.2613 69.5397C75.1592 66.7245 78.2 61.4793 78.2 55.8489V29.1511C78.1967 23.5207 75.1559 18.2755 70.258 15.4603ZM34.5488 7.95755C35.9525 7.15084 37.5229 6.74914 39.0967 6.74914C40.6704 6.74914 42.2408 7.15084 43.6445 7.95755L62.1759 18.6108C63.673 19.4706 63.6663 21.6285 62.1626 22.4783L42.0374 33.8453C40.2136 34.8744 37.9797 34.8744 36.1559 33.8453L15.9674 22.4451C14.4904 21.6119 14.4837 19.4938 15.9541 18.6506L34.5488 7.95755ZM11.3296 63.6936C8.52551 62.0801 6.78173 59.0757 6.78173 55.8489V36.541C6.78173 34.0212 9.5091 32.441 11.7097 33.6826L30.121 44.0802C31.9882 45.1326 33.1385 47.1046 33.1385 49.2425V70.539C33.1385 73.0687 30.3878 74.6489 28.1872 73.384L11.3296 63.6936ZM66.8671 63.6936L49.9061 73.4438C47.7522 74.6821 45.0582 73.1351 45.0582 70.6585V49.2458C45.0582 47.1112 46.2118 45.1392 48.079 44.0835L66.5904 33.6262C68.7442 32.4078 71.4149 33.9582 71.4149 36.4248V55.8489C71.4149 59.0757 69.6745 62.0801 66.8671 63.6936Z" fill="#FFC506"/>
</svg>
