<svg width="154" height="46" viewBox="0 0 154 46" fill="none" xmlns="http://www.w3.org/2000/svg">
<path d="M15.0827 0.00243387C15.0291 0 14.9732 0 14.9196 0C14.8636 0 14.8101 0 14.7541 0.00243387C12.0501 0.0973547 9.94478 2.36329 9.94478 5.02594V9.96425H5.03324C2.36815 9.96425 0.0973547 12.0647 0.00243387 14.7663C0 14.8198 0 14.8758 0 14.9293C0 14.9829 0 15.0389 0.00243387 15.0948C0.0973547 17.7964 2.36815 19.8969 5.03324 19.8969H11.7775H14.9196H16.1633H18.0642C19.0742 19.8969 19.8944 19.0913 19.8944 18.0958V5.02594C19.892 2.36329 17.7867 0.0973547 15.0827 0.00243387Z" fill="#868686"/>
<path d="M45.9979 15.0947C46.0003 15.0387 46.0003 14.9852 46.0003 14.9292C46.0003 14.8756 46.0003 14.8197 45.9979 14.7637C45.9029 12.0621 43.6321 9.96167 40.9671 9.96167H36.0239V5.05499C36.0239 2.39234 33.9186 0.126407 31.2145 0.0314866C31.1586 0.0290527 31.105 0.0290527 31.049 0.0290527C30.9931 0.0290527 30.9395 0.0290527 30.8835 0.0314866C28.1795 0.126407 26.0742 2.39234 26.0742 5.05499V11.7895V14.9292V16.1705V18.0689C26.0742 19.0789 26.8823 19.8967 27.8753 19.8967H40.9622C43.6346 19.8967 45.9029 17.7939 45.9979 15.0947Z" fill="#868686"/>
<path d="M15.0827 45.9975C15.0291 45.9999 14.9732 45.9999 14.9196 45.9999C14.8636 45.9999 14.8101 45.9999 14.7541 45.9975C12.0501 45.9025 9.94478 43.6366 9.94478 40.974V36.0356H5.03324C2.36815 36.0356 0.0973547 33.9352 0.00243387 31.2336C0 31.1801 0 31.1241 0 31.0706C0 31.017 0 30.961 0.00243387 30.905C0.0973547 28.2035 2.36815 26.103 5.03324 26.103H11.7775H14.9196H16.1633H18.0642C19.0742 26.103 19.8944 26.9086 19.8944 27.9041V40.974C19.892 43.6366 17.7867 45.9025 15.0827 45.9975Z" fill="#868686"/>
<path d="M45.9979 30.905C46.0003 30.961 46.0003 31.0146 46.0003 31.0706C46.0003 31.1241 46.0003 31.1801 45.9979 31.2361C45.9029 33.9376 43.6321 36.0381 40.9671 36.0381H36.0239V40.9447C36.0239 43.6074 33.9186 45.8733 31.2145 45.9683C31.1586 45.9707 31.105 45.9707 31.049 45.9707C30.9931 45.9707 30.9395 45.9707 30.8835 45.9683C28.1795 45.8733 26.0742 43.6074 26.0742 40.9447V34.2102V31.0706V29.8293V27.9309C26.0742 26.9208 26.8823 26.103 27.8753 26.103H40.9622C43.6346 26.103 45.9029 28.2059 45.9979 30.905Z" fill="#868686"/>
<path d="M61.7363 22.9342C61.7363 19.4152 62.9878 16.4293 65.4884 13.9744C67.9914 11.517 71.0421 10.2896 74.6381 10.2896C79.4399 10.2896 83.0839 12.2593 85.57 16.2011L80.48 19.0404C78.9787 16.929 77.0306 15.8745 74.6381 15.8745C72.714 15.8745 71.0445 16.5783 69.6297 17.9859C68.2148 19.3935 67.5062 21.0438 67.5062 22.9367C67.5062 24.8295 68.2124 26.4798 69.6297 27.8874C71.0445 29.295 72.714 29.9989 74.6381 29.9989C77.1098 29.9989 79.0555 28.9587 80.48 26.8785L85.5244 29.6698C82.9902 33.6428 79.363 35.627 74.6405 35.627C71.0901 35.627 68.0515 34.3827 65.5269 31.8965C62.9998 29.4079 61.7363 26.4221 61.7363 22.9342Z" fill="#868686"/>
<path d="M85.8281 22.9342C85.8281 19.4152 87.0772 16.4293 89.573 13.9744C92.0712 11.517 95.1195 10.2896 98.7202 10.2896C101.375 10.2896 103.741 11.0246 105.816 12.4947V10.525H111.821V35.0865H105.816V33.4435C103.705 34.8823 101.336 35.6102 98.7082 35.6246C95.1579 35.6246 92.124 34.3803 89.6066 31.8941C87.0868 29.4079 85.8281 26.4221 85.8281 22.9342ZM93.7191 17.9835C92.3066 19.3911 91.6004 21.0414 91.6004 22.9342C91.6004 24.8271 92.3066 26.4774 93.7191 27.885C95.1315 29.2926 96.7962 29.9964 98.7082 29.9964C100.62 29.9964 102.283 29.2926 103.697 27.885C105.112 26.4774 105.816 24.8271 105.816 22.9342C105.816 21.0414 105.11 19.3911 103.697 17.9835C102.285 16.5759 100.623 15.8721 98.7082 15.8721C96.7938 15.8721 95.1315 16.5759 93.7191 17.9835Z" fill="#868686"/>
<path d="M114.893 35.0841V10.525H120.946V12.8838C122.651 11.1855 125.066 10.3208 128.195 10.2896L127.794 16.6696C125.135 16.6696 123.329 17.1308 122.375 18.0556C121.422 18.9804 120.943 20.4913 120.943 22.5883V35.0841H114.893Z" fill="#868686"/>
<path d="M128.006 22.9342C128.006 19.4152 129.253 16.4293 131.748 13.9744C134.242 11.517 137.288 10.2896 140.884 10.2896C144.667 10.2896 147.756 11.5555 150.148 14.0897C152.541 16.6239 153.737 19.6962 153.737 23.309C153.737 23.7005 153.706 24.2482 153.644 24.952H134.15C134.667 26.547 135.539 27.7865 136.766 28.6705C137.994 29.5545 139.522 29.9964 141.352 29.9964C142.853 29.9964 144.107 29.7466 145.116 29.247C146.125 28.7474 147.028 27.9571 147.826 26.8785L152.892 29.6698C150.264 33.6428 146.418 35.627 141.35 35.627C137.501 35.627 134.316 34.4235 131.792 32.0142C129.269 29.6025 128.006 26.5782 128.006 22.9342ZM134.292 20.1886H147.357C146.137 17.3109 143.98 15.8721 140.884 15.8721C139.445 15.8721 138.131 16.2708 136.942 17.0683C135.755 17.8658 134.871 18.9059 134.292 20.1886Z" fill="#868686"/>
</svg>
