<svg width="226" height="86" viewBox="0 0 226 86" fill="none" xmlns="http://www.w3.org/2000/svg">
<path d="M124.831 19.7097C120.845 16.8894 116.311 15.4793 111.218 15.4793C104.311 15.4793 98.4626 17.8341 93.6746 22.5438C88.8865 27.2535 86.4902 32.9862 86.4902 39.7327C86.4902 46.424 88.905 52.1521 93.7345 56.9217C98.564 61.6913 104.384 64.0784 111.195 64.0784C116.237 64.0461 120.781 62.6544 124.831 59.894V63.0461H136.352V0H124.831V19.7097ZM120.762 49.235C118.052 51.9355 114.864 53.2857 111.191 53.2857C107.518 53.2857 104.334 51.9355 101.619 49.235C98.905 46.5346 97.5548 43.3687 97.5548 39.7373C97.5548 36.106 98.9096 32.9401 101.619 30.2396C104.329 27.5392 107.522 26.1889 111.191 26.1889C114.859 26.1889 118.048 27.5392 120.762 30.2396C123.476 32.9401 124.827 36.106 124.827 39.7373C124.831 43.3687 123.472 46.5346 120.762 49.235Z" fill="#161616"/>
<path d="M153.859 15.9309H142.246V63.0507H153.859V15.9309Z" fill="#161616"/>
<path d="M148.053 0C144.845 0 142.246 2.59908 142.246 5.80645C142.246 9.01383 144.845 11.6129 148.053 11.6129C151.26 11.6129 153.859 9.01383 153.859 5.80645C153.854 2.59908 151.255 0 148.053 0Z" fill="#161616"/>
<path d="M219.651 0C216.444 0 213.845 2.59908 213.845 5.80645C213.845 9.01383 216.444 11.6129 219.651 11.6129C222.859 11.6129 225.458 9.01383 225.458 5.80645C225.453 2.59908 222.854 0 219.651 0Z" fill="#161616"/>
<path d="M225.458 15.9309H213.845V63.0507H225.458V15.9309Z" fill="#161616"/>
<path d="M187.891 70.6223C185.181 73.3228 181.992 74.673 178.319 74.673C174.651 74.673 171.462 73.3228 168.748 70.6223C167.255 69.1338 166.176 67.5071 165.504 65.7329H154.024C154.9 70.4841 157.172 74.6822 160.854 78.3136C165.683 83.0831 171.504 85.4702 178.319 85.4702C185.135 85.4702 190.955 83.0831 195.785 78.3136C199.467 74.6776 201.739 70.4841 202.614 65.7329H191.135C190.462 67.5071 189.384 69.1338 187.891 70.6223Z" fill="#161616"/>
<path d="M196.946 19.0645C193.108 16.6774 188.744 15.4792 183.85 15.4792C176.974 15.4792 171.14 17.8341 166.343 22.5438C161.545 27.2534 159.145 32.9862 159.145 39.7327C159.145 46.424 161.559 52.1521 166.389 56.9217C171.218 61.6912 177.039 64.0783 183.854 64.0783C190.67 64.0783 196.49 61.6912 201.32 56.9217C206.135 52.1613 208.55 46.447 208.559 39.7742V15.5806H196.946V19.0645ZM193.421 49.235C190.711 51.9355 187.522 53.2857 183.85 53.2857C180.181 53.2857 176.992 51.9355 174.278 49.235C171.568 46.5346 170.214 43.3687 170.214 39.7373C170.214 36.106 171.568 32.9401 174.278 30.2396C176.988 27.5392 180.181 26.1889 183.85 26.1889C187.518 26.1889 190.707 27.5392 193.421 30.2396C196.131 32.9401 197.486 36.106 197.486 39.7373C197.486 43.3687 196.131 46.5346 193.421 49.235Z" fill="#161616"/>
<path d="M20.9371 22.9403C13.6928 30.1845 13.6928 41.9264 20.9371 49.1707C28.1813 56.4149 39.9233 56.4149 47.1675 49.1707C54.4118 41.9264 54.4118 30.1845 47.1675 22.9403C39.9233 15.696 28.1813 15.696 20.9371 22.9403Z" fill="#F83B66"/>
<path d="M62.4528 12.2257C62.4528 7.63583 58.7339 3.91694 54.144 3.91694C52.4021 3.91694 50.7892 4.45611 49.4528 5.36855C36.6648 -1.09228 20.6279 1.00449 9.96429 11.6727C-3.32143 24.9584 -3.32143 46.5805 9.96429 59.8709C16.6095 66.516 25.333 69.8386 34.0611 69.8386C42.7892 69.8386 51.5173 66.516 58.1579 59.8709C70.1532 47.8755 71.3145 29.0828 61.6509 15.7695C62.1579 14.6911 62.4528 13.493 62.4528 12.2257ZM53.9459 55.6543C42.9827 66.6174 25.144 66.6174 14.1809 55.6543C3.21774 44.6911 3.21774 26.8524 14.1809 15.8893C19.6648 10.4054 26.8629 7.66809 34.0657 7.66809C38.1717 7.66809 42.2731 8.5621 46.0611 10.3409C45.9182 10.9492 45.8399 11.5759 45.8399 12.2257C45.8399 16.8156 49.5588 20.5345 54.1486 20.5345C55.2592 20.5345 56.3191 20.3133 57.2869 19.9169C64.7569 30.857 63.6509 45.9492 53.9459 55.6543Z" fill="#F83B66"/>
</svg>
