<svg width="191" height="47" viewBox="0 0 191 47" fill="none" xmlns="http://www.w3.org/2000/svg">
<path d="M60.2715 23.6828C60.2715 20.438 61.4254 17.6849 63.7311 15.4213C66.039 13.1577 68.8475 12.0259 72.1565 12.0259C75.4656 12.0259 78.2696 13.1577 80.5709 15.4213C82.8699 17.6849 84.0217 20.4402 84.0217 23.6828C84.0217 26.8988 82.8655 29.6519 80.551 31.9443C78.2364 34.2367 75.439 35.384 72.1588 35.384C68.8785 35.384 66.0767 34.2367 63.7555 31.9443C61.4321 29.6519 60.2715 26.8988 60.2715 23.6828ZM67.5385 19.1201C66.2406 20.4181 65.5916 21.9397 65.5916 23.685C65.5916 25.4304 66.2406 26.952 67.5385 28.2499C68.8364 29.5478 70.3714 30.1968 72.1455 30.1968C73.9196 30.1968 75.4545 29.5478 76.7524 28.2499C78.0503 26.952 78.6993 25.4304 78.6993 23.685C78.6993 21.9397 78.0503 20.4181 76.7524 19.1201C75.4545 17.8222 73.9196 17.1733 72.1455 17.1733C70.3714 17.1733 68.8364 17.8222 67.5385 19.1201Z" fill="#868686"/>
<path d="M86.25 34.8879V12.2407H91.8315V14.4158C93.4041 12.8498 95.63 12.0525 98.516 12.0237L98.1483 17.9064C95.6965 17.9064 94.0309 18.3317 93.1516 19.1844C92.2723 20.0371 91.8315 21.4303 91.8315 23.3639V34.8857H86.25V34.8879Z" fill="#868686"/>
<path d="M100.459 34.8878V4.58374H105.996V14.0568C107.914 12.7013 110.098 12.0235 112.55 12.0235C115.852 12.0235 118.656 13.1553 120.964 15.4189C123.272 17.6826 124.424 20.4379 124.424 23.6805C124.424 26.8965 123.263 29.6496 120.942 31.942C118.621 34.2344 115.824 35.3817 112.55 35.3817C110.127 35.3817 107.943 34.7106 105.996 33.3706V34.8856H100.459V34.8878ZM107.921 19.12C106.636 20.4179 105.996 21.9396 105.996 23.6849C105.996 25.4302 106.639 26.9518 107.921 28.2498C109.203 29.5477 110.747 30.1966 112.55 30.1966C114.353 30.1966 115.895 29.5477 117.179 28.2498C118.462 26.9518 119.104 25.4302 119.104 23.6849C119.104 21.9396 118.462 20.4179 117.179 19.12C115.895 17.8221 114.353 17.1731 112.55 17.1731C110.747 17.1731 109.203 17.8221 107.921 19.12Z" fill="#868686"/>
<path d="M125.656 23.6828C125.656 20.438 126.806 17.6849 129.107 15.4213C131.406 13.1577 134.215 12.0259 137.532 12.0259C141.023 12.0259 143.869 13.1931 146.075 15.5298C148.281 17.8665 149.384 20.6994 149.384 24.0305C149.384 24.3916 149.355 24.8966 149.298 25.5455H131.324C131.8 27.0162 132.604 28.1591 133.736 28.9742C134.868 29.7892 136.277 30.1968 137.964 30.1968C139.349 30.1968 140.505 29.9664 141.435 29.5057C142.365 29.045 143.198 28.3163 143.933 27.3219L148.605 29.8956C146.182 33.559 142.636 35.3885 137.962 35.3885C134.414 35.3885 131.477 34.2788 129.149 32.0573C126.821 29.8335 125.656 27.0428 125.656 23.6828ZM131.455 21.1534H143.502C142.376 18.5 140.387 17.1733 137.532 17.1733C136.206 17.1733 134.994 17.5409 133.898 18.2763C132.801 19.0116 131.986 19.9707 131.455 21.1534Z" fill="#868686"/>
<path d="M150.727 23.6828C150.727 20.438 151.878 17.6849 154.18 15.4213C156.481 13.1577 159.292 12.0259 162.612 12.0259C165.059 12.0259 167.241 12.7036 169.154 14.0591V12.2429H174.692V34.8901H169.154V33.3751C167.208 34.7018 165.024 35.373 162.601 35.3862C159.327 35.3862 156.53 34.2389 154.208 31.9465C151.887 29.6519 150.727 26.8988 150.727 23.6828ZM158 19.1201C156.698 20.4181 156.047 21.9397 156.047 23.685C156.047 25.4304 156.698 26.952 158 28.2499C159.303 29.5478 160.837 30.1968 162.601 30.1968C164.364 30.1968 165.896 29.5478 167.201 28.2499C168.503 26.952 169.154 25.4304 169.154 23.685C169.154 21.9397 168.503 20.4181 167.201 19.1201C165.899 17.8222 164.366 17.1733 162.601 17.1733C160.835 17.1733 159.305 17.8222 158 19.1201Z" fill="#868686"/>
<path d="M176.357 17.3879V12.2405H179.062V6.31348H184.643V12.2405H189.749V17.3879H184.643V25.5852C184.643 27.1577 184.993 28.2142 185.693 28.7547C186.393 29.2951 187.968 29.5808 190.42 29.6096L190.765 35.0161H189.576C186.143 35.0161 183.534 34.3384 181.746 32.9829C179.959 31.6274 179.064 29.1622 179.064 25.5852V17.3879H176.357Z" fill="#868686"/>
<path d="M0 12.5364V34.4636C0 41.3879 5.6121 47 12.5364 47H34.4636C41.3879 47 47 41.3879 47 34.4636V12.5364C47.0027 5.6121 41.3906 0 34.4663 0H12.5364C5.6121 0 0 5.6121 0 12.5364ZM40.1185 40.1185C34.2873 45.9497 22.1197 43.2372 12.9426 34.0574C3.76545 24.8776 1.05294 12.7154 6.88418 6.88418C11.1681 2.60027 18.87 2.92898 26.294 7.04185C24.14 8.82703 22.7637 11.5208 22.7637 14.53C22.7637 19.8909 27.1251 24.2523 32.486 24.2523C35.4952 24.2523 38.1863 22.8787 39.9715 20.7274C44.0737 28.146 44.3997 35.8399 40.1185 40.1185ZM38.7315 14.5327C38.7315 14.6583 38.7262 14.7812 38.7208 14.9041C38.7181 14.9415 38.7155 14.9763 38.7128 15.0137C38.7048 15.1019 38.6968 15.1901 38.6861 15.2756C38.6807 15.313 38.6754 15.3531 38.6727 15.3905C38.6594 15.4841 38.646 15.5749 38.6273 15.6658C38.6219 15.6925 38.6193 15.7219 38.6112 15.7486C38.5872 15.8689 38.5605 15.9891 38.5284 16.1094C38.5284 16.1121 38.5284 16.1121 38.5257 16.1147C38.4963 16.2297 38.4616 16.3446 38.4242 16.4568C38.4162 16.4809 38.4081 16.5049 38.4001 16.529C38.3681 16.6225 38.336 16.7134 38.2986 16.8069C38.2906 16.831 38.2799 16.8523 38.2719 16.8764C38.2291 16.9833 38.1837 17.0875 38.1356 17.1917C38.1329 17.1944 38.1329 17.1998 38.1302 17.2024C38.0768 17.3173 38.018 17.4296 37.9565 17.5418C36.8929 19.4713 34.8378 20.7808 32.4834 20.7808C29.0386 20.7808 26.2352 17.9774 26.2352 14.5327C26.2352 12.1756 27.5474 10.1205 29.4796 9.05686C29.5891 8.99807 29.6987 8.93927 29.8109 8.88582C29.8216 8.88048 29.8296 8.87781 29.8403 8.87246C29.9365 8.82703 30.0381 8.78427 30.137 8.74419C30.1637 8.7335 30.1904 8.72281 30.2145 8.71212C30.3027 8.67737 30.3909 8.64531 30.4817 8.61591C30.5084 8.60789 30.5352 8.5972 30.5619 8.58918C30.6715 8.55444 30.7837 8.5197 30.8959 8.49031C30.8986 8.49031 30.904 8.48763 30.9066 8.48763C31.0242 8.45556 31.1445 8.42884 31.2647 8.40479C31.2941 8.39944 31.3209 8.3941 31.3503 8.38875C31.4411 8.37272 31.532 8.35668 31.6228 8.34599C31.6629 8.34065 31.7003 8.3353 31.7404 8.32996C31.8259 8.31927 31.9141 8.31125 32.0023 8.30591C32.0397 8.30324 32.0772 8.30056 32.1119 8.29789C32.2348 8.28987 32.3578 8.2872 32.4834 8.2872C35.9281 8.28453 38.7315 11.0852 38.7315 14.5327ZM42.7001 6.48331C42.7001 7.12469 42.4783 7.71263 42.1068 8.17763C41.9224 8.41013 41.7006 8.61057 41.452 8.77358C41.4387 8.7816 41.4226 8.78962 41.4093 8.80031C41.3425 8.84039 41.2757 8.88048 41.2062 8.91522C41.1821 8.92858 41.1581 8.93927 41.134 8.94996C41.0726 8.97936 41.0084 9.00608 40.9443 9.03014C40.9149 9.04083 40.8855 9.05152 40.8534 9.0622C40.7919 9.08358 40.7278 9.10229 40.6637 9.11833C40.6316 9.12634 40.5995 9.13703 40.5648 9.14238C40.498 9.15841 40.4312 9.1691 40.3617 9.17712C40.3323 9.18246 40.3029 9.18781 40.2708 9.19048C40.1719 9.20117 40.0704 9.20919 39.9688 9.20919C39.878 9.20919 39.7871 9.20384 39.6963 9.19583C39.6669 9.19315 39.6375 9.18781 39.6054 9.18246C39.5466 9.17445 39.4878 9.16643 39.4317 9.15574C39.3969 9.14772 39.3622 9.13971 39.3248 9.12902C39.274 9.11833 39.2259 9.10496 39.1751 9.0916C39.1377 9.08091 39.1003 9.06755 39.0656 9.05419C39.0201 9.03815 38.9747 9.02212 38.9319 9.00608C38.8945 8.99005 38.8571 8.97401 38.8197 8.95531C38.7796 8.9366 38.7395 8.91789 38.6994 8.89651C38.662 8.87781 38.6246 8.85643 38.5899 8.83505C38.5525 8.81367 38.5177 8.79229 38.4803 8.76824C38.4429 8.74419 38.4081 8.71746 38.3707 8.69341C38.3387 8.66936 38.3066 8.64531 38.2745 8.62125C38.2398 8.59186 38.205 8.56246 38.1703 8.53306C38.1409 8.50901 38.1142 8.48229 38.0848 8.45556C38.05 8.42349 38.018 8.38875 37.9832 8.35401C37.9592 8.32729 37.9351 8.30056 37.9111 8.27384C37.879 8.23642 37.8469 8.19901 37.8175 8.15892C37.7962 8.1322 37.7774 8.10548 37.7561 8.07875C37.7267 8.03599 37.6973 7.99591 37.6679 7.95047C37.6518 7.92375 37.6358 7.89703 37.6198 7.8703C37.5931 7.82487 37.5663 7.77677 37.5396 7.72866C37.5262 7.70194 37.5156 7.67521 37.5022 7.65116C37.4781 7.60039 37.4541 7.54694 37.4327 7.49616C37.422 7.47211 37.414 7.44806 37.406 7.42401C37.3846 7.36789 37.3659 7.30909 37.3472 7.25297C37.3418 7.23159 37.3365 7.21021 37.3312 7.18883C37.3151 7.12469 37.2991 7.06323 37.2857 6.99642C37.2831 6.98038 37.2804 6.96702 37.2777 6.95099C37.2643 6.87883 37.2537 6.80668 37.2483 6.73452C37.2403 6.65167 37.2349 6.56883 37.2349 6.48331C37.2349 4.97606 38.4562 3.75743 39.9608 3.75743C41.4788 3.75743 42.7001 4.97606 42.7001 6.48331Z" fill="#868686"/>
</svg>
