<svg width="122" height="46" viewBox="0 0 122 46" fill="none" xmlns="http://www.w3.org/2000/svg">
<path d="M67.1884 10.6078C65.043 9.08992 62.6024 8.33098 59.8618 8.33098C56.1439 8.33098 52.9964 9.59836 50.4194 12.1331C47.8425 14.6679 46.5527 17.7533 46.5527 21.3843C46.5527 24.9855 47.8524 28.0684 50.4517 30.6354C53.051 33.2024 56.1836 34.4871 59.8494 34.4871C62.5628 34.4698 65.0083 33.7208 67.1884 32.2351V33.9316H73.3891V0H67.1884V10.6078ZM64.9984 26.4984C63.54 27.9518 61.8236 28.6785 59.8469 28.6785C57.8701 28.6785 56.1563 27.9518 54.6954 26.4984C53.2345 25.045 52.5078 23.3411 52.5078 21.3867C52.5078 19.4323 53.237 17.7285 54.6954 16.2751C56.1538 14.8217 57.8726 14.095 59.8469 14.095C61.8212 14.095 63.5375 14.8217 64.9984 16.2751C66.4592 17.7285 67.1859 19.4323 67.1859 21.3867C67.1884 23.3411 66.4568 25.045 64.9984 26.4984Z" fill="#868686"/>
<path d="M82.8088 8.57422H76.5586V33.9342H82.8088V8.57422Z" fill="#868686"/>
<path d="M79.6837 0C77.9575 0 76.5586 1.39883 76.5586 3.12505C76.5586 4.85127 77.9575 6.2501 79.6837 6.2501C81.41 6.2501 82.8088 4.85127 82.8088 3.12505C82.8063 1.39883 81.4075 0 79.6837 0Z" fill="#868686"/>
<path d="M118.217 0C116.491 0 115.092 1.39883 115.092 3.12505C115.092 4.85127 116.491 6.2501 118.217 6.2501C119.943 6.2501 121.342 4.85127 121.342 3.12505C121.34 1.39883 119.941 0 118.217 0Z" fill="#868686"/>
<path d="M121.342 8.57422H115.092V33.9342H121.342V8.57422Z" fill="#868686"/>
<path d="M101.124 38.0089C99.6655 39.4623 97.9491 40.189 95.9724 40.189C93.9981 40.189 92.2818 39.4623 90.8209 38.0089C90.0173 37.2078 89.4369 36.3323 89.0748 35.3774H82.8965C83.3677 37.9345 84.5905 40.194 86.5722 42.1484C89.1715 44.7154 92.3041 46.0001 95.9724 46.0001C99.6407 46.0001 102.773 44.7154 105.373 42.1484C107.354 40.1915 108.577 37.9345 109.048 35.3774H102.87C102.508 36.3323 101.927 37.2078 101.124 38.0089Z" fill="#868686"/>
<path d="M106.002 10.2606C103.936 8.97591 101.587 8.33105 98.9529 8.33105C95.2523 8.33105 92.1123 9.59844 89.5304 12.1332C86.9485 14.668 85.6562 17.7533 85.6562 21.3843C85.6562 24.9856 86.9559 28.0685 89.5552 30.6355C92.1545 33.2025 95.2871 34.4872 98.9554 34.4872C102.624 34.4872 105.756 33.2025 108.356 30.6355C110.947 28.0734 112.247 24.998 112.252 21.4067V8.38562H106.002V10.2606ZM104.104 26.4985C102.646 27.9519 100.93 28.6786 98.9529 28.6786C96.9786 28.6786 95.2623 27.9519 93.8014 26.4985C92.343 25.0451 91.6138 23.3412 91.6138 21.3868C91.6138 19.4324 92.343 17.7285 93.8014 16.2751C95.2598 14.8217 96.9786 14.095 98.9529 14.095C100.927 14.095 102.643 14.8217 104.104 16.2751C105.563 17.7285 106.292 19.4324 106.292 21.3868C106.292 23.3412 105.563 25.0451 104.104 26.4985Z" fill="#868686"/>
<path d="M11.268 12.3465C7.36901 16.2454 7.36901 22.5649 11.268 26.4638C15.1669 30.3627 21.4866 30.3627 25.3856 26.4638C29.2845 22.5649 29.2845 16.2454 25.3856 12.3465C21.4866 8.44765 15.1669 8.44765 11.268 12.3465Z" fill="#868686"/>
<path d="M33.613 6.57972C33.613 4.10945 31.6114 2.10793 29.1411 2.10793C28.2036 2.10793 27.3355 2.39811 26.6162 2.88919C19.7335 -0.588047 11.1022 0.540444 5.36292 6.2821C-1.78764 13.4325 -1.78764 25.0696 5.36292 32.2225C8.93945 35.7989 13.6346 37.5872 18.3322 37.5872C23.0298 37.5872 27.7273 35.7989 31.3014 32.2225C37.7575 25.7665 38.3825 15.6523 33.1814 8.487C33.4543 7.90663 33.613 7.26178 33.613 6.57972ZM29.0344 29.9531C23.1339 35.8535 13.5329 35.8535 7.63235 29.9531C1.73184 24.0527 1.73184 14.4519 7.63235 8.55148C10.5839 5.60005 14.458 4.12681 18.3346 4.12681C20.5445 4.12681 22.752 4.60797 24.7907 5.56532C24.7138 5.89271 24.6717 6.23002 24.6717 6.57972C24.6717 9.05 26.6732 11.0515 29.1436 11.0515C29.7413 11.0515 30.3118 10.9325 30.8326 10.7192C34.8531 16.6072 34.2579 24.7298 29.0344 29.9531Z" fill="#868686"/>
</svg>
