<svg width="371" height="88" viewBox="0 0 371 88" fill="none" xmlns="http://www.w3.org/2000/svg">
<path d="M93 44.7952V34.4539H97.408V32.5045C97.408 25.3937 99.2726 20.3948 103.002 17.5031C106.391 14.8714 111.573 13.5579 118.547 13.5579C119.253 13.5579 119.987 13.5718 120.751 13.5996L119.991 24.419C115.022 24.419 111.836 24.9713 110.437 26.0714C109.039 27.1714 108.342 29.3158 108.342 32.4998V34.4539H118.339V44.7952H108.342V74.9464H97.4125V44.7952H93Z" fill="#868686"/>
<path d="M123.965 25.2866V14.0728H134.894V25.282H123.965V25.2866ZM123.965 74.9461V29.4547H134.894V74.9461H123.965Z" fill="#868686"/>
<path d="M140.446 74.9461V29.4547H151.376V33.827C154.453 30.6801 158.816 29.0788 164.468 29.0231L163.749 40.8403C158.947 40.8403 155.684 41.6944 153.964 43.4071C152.24 45.1198 151.38 47.9186 151.38 51.8036V74.9461H140.446Z" fill="#868686"/>
<path d="M164.128 52.4393C164.128 45.9227 166.382 40.39 170.885 35.8413C175.388 31.2926 180.891 29.0183 187.385 29.0183C194.219 29.0183 199.799 31.3623 204.121 36.0548C208.443 40.7474 210.602 46.4379 210.602 53.1309C210.602 53.855 210.548 54.8668 210.434 56.1711H175.229C176.162 59.1277 177.737 61.4207 179.954 63.0591C182.172 64.6976 184.932 65.5145 188.236 65.5145C190.947 65.5145 193.214 65.0503 195.034 64.122C196.858 63.1937 198.487 61.7316 199.926 59.7358L209.077 64.9064C204.334 72.2632 197.382 75.9439 188.232 75.9439C181.285 75.9439 175.528 73.7114 170.966 69.2509C166.404 64.7904 164.128 59.1881 164.128 52.4393ZM175.483 47.3569H199.08C196.876 42.0284 192.979 39.3642 187.385 39.3642C184.788 39.3642 182.416 40.1022 180.266 41.5782C178.121 43.0542 176.528 44.9804 175.483 47.3569Z" fill="#868686"/>
<path d="M209.383 29.4556H220.312L228.318 58.9152L236.369 29.4556H247.552L255.558 58.9152L263.609 29.4556H274.118L261.555 74.9469H248.964L241.673 47.8777L234.383 74.9469H221.964L209.383 29.4556Z" fill="#868686"/>
<path d="M272.712 52.4393C272.712 45.9227 274.966 40.39 279.469 35.8413C283.972 31.2926 289.475 29.0183 295.969 29.0183C302.803 29.0183 308.383 31.3623 312.705 36.0548C317.027 40.7474 319.186 46.4379 319.186 53.1309C319.186 53.855 319.132 54.8668 319.018 56.1711H283.813C284.746 59.1277 286.321 61.4207 288.538 63.0591C290.756 64.6976 293.516 65.5145 296.82 65.5145C299.531 65.5145 301.798 65.0503 303.618 64.122C305.442 63.1937 307.071 61.7316 308.51 59.7358L317.661 64.9064C312.918 72.2632 305.966 75.9439 296.816 75.9439C289.869 75.9439 284.112 73.7114 279.55 69.2509C274.988 64.7904 272.712 59.1881 272.712 52.4393ZM284.067 47.3569H307.664C305.46 42.0284 301.563 39.3642 295.969 39.3642C293.372 39.3642 291 40.1022 288.85 41.5782C286.705 43.0542 285.112 44.9804 284.067 47.3569Z" fill="#868686"/>
<path d="M323.383 74.946V14.0726H334.226V33.1028C337.983 30.3782 342.259 29.0183 347.061 29.0183C353.528 29.0183 359.022 31.2926 363.539 35.8413C368.056 40.39 370.318 45.9226 370.318 52.4393C370.318 58.9003 368.047 64.433 363.498 69.0373C358.95 73.6417 353.474 75.9439 347.061 75.9439C342.318 75.9439 338.037 74.5979 334.226 71.9012V74.9413H323.383V74.946ZM337.996 43.2723C335.484 45.8809 334.226 48.935 334.226 52.4393C334.226 55.9437 335.484 58.9978 337.996 61.6063C340.508 64.2148 343.531 65.5144 347.061 65.5144C350.591 65.5144 353.614 64.2102 356.126 61.6063C358.638 58.9978 359.896 55.9437 359.896 52.4393C359.896 48.935 358.638 45.8809 356.126 43.2723C353.614 40.6638 350.591 39.3642 347.061 39.3642C343.531 39.3642 340.512 40.6638 337.996 43.2723Z" fill="#868686"/>
<path d="M35.6031 16.4685L32.0566 30.1837L28.3979 2L1 56.288L20.2391 72.7118L28.3979 60.9038L36.7171 72.7118L55.6917 56.2439L35.6031 16.4685Z" fill="#868686"/>
<path d="M8.71094 77.3237H47.9865V87.0001H8.71094V77.3237Z" fill="#868686"/>
</svg>
