<svg width="173" height="55" viewBox="0 0 173 55" fill="none" xmlns="http://www.w3.org/2000/svg">
<path d="M15.3468 18.2773H15.3273V19H14.5265V11.5977H15.3273V14.8789H15.3468C15.7407 14.2148 16.3169 13.8828 17.0754 13.8828C17.7166 13.8828 18.2179 14.1074 18.5793 14.5566C18.9438 15.0026 19.1261 15.6016 19.1261 16.3535C19.1261 17.1901 18.9227 17.8607 18.5158 18.3652C18.1089 18.8665 17.5522 19.1172 16.8459 19.1172C16.1851 19.1172 15.6854 18.8372 15.3468 18.2773ZM15.3273 16.2607V16.959C15.3273 17.3724 15.4608 17.724 15.7277 18.0137C15.9979 18.3001 16.3397 18.4434 16.7531 18.4434C17.2381 18.4434 17.6173 18.2578 17.8908 17.8867C18.1675 17.5156 18.3058 16.9997 18.3058 16.3389C18.3058 15.7822 18.1772 15.346 17.9201 15.0303C17.6629 14.7145 17.3146 14.5566 16.8752 14.5566C16.4097 14.5566 16.0353 14.7194 15.7521 15.0449C15.4689 15.3672 15.3273 15.7725 15.3273 16.2607ZM24.3849 14L22.0851 19.8008C21.675 20.8359 21.0988 21.3535 20.3566 21.3535C20.1483 21.3535 19.9741 21.3324 19.8341 21.29V20.5723C20.0067 20.6309 20.1645 20.6602 20.3078 20.6602C20.7114 20.6602 21.0142 20.4193 21.216 19.9375L21.6164 18.9902L19.6632 14H20.5519L21.9045 17.8477C21.9207 17.8965 21.9549 18.0234 22.007 18.2285H22.0363C22.0526 18.1504 22.0851 18.0267 22.1339 17.8574L23.5548 14H24.3849ZM25.5275 14.9766C25.3778 14.9766 25.2492 14.9229 25.1418 14.8154C25.0376 14.708 24.9855 14.5794 24.9855 14.4297C24.9855 14.2799 25.0376 14.153 25.1418 14.0488C25.2492 13.9447 25.3778 13.8926 25.5275 13.8926C25.6805 13.8926 25.8107 13.9447 25.9181 14.0488C26.0255 14.153 26.0793 14.2799 26.0793 14.4297C26.0793 14.5794 26.0255 14.708 25.9181 14.8154C25.8107 14.9229 25.6805 14.9766 25.5275 14.9766ZM25.5275 19.1074C25.3778 19.1074 25.2492 19.0537 25.1418 18.9463C25.0376 18.8389 24.9855 18.7103 24.9855 18.5605C24.9855 18.4108 25.0376 18.2822 25.1418 18.1748C25.2492 18.0641 25.3778 18.0088 25.5275 18.0088C25.6805 18.0088 25.8107 18.0641 25.9181 18.1748C26.0255 18.2822 26.0793 18.4108 26.0793 18.5605C26.0793 18.7103 26.0255 18.8389 25.9181 18.9463C25.8107 19.0537 25.6805 19.1074 25.5275 19.1074Z" fill="#A3A3A3"/>
<circle cx="49.9995" cy="35.4839" r="14.5161" fill="#A3A3A3"/>
<circle cx="68.5489" cy="44.3548" r="4.03226" fill="#A3A3A3"/>
<path d="M82.93 40.71C82.93 39.39 83.13 38.25 83.53 37.29C83.93 36.31 84.48 35.5 85.18 34.86C85.9 34.22 86.73 33.75 87.67 33.45C88.63 33.13 89.66 32.97 90.76 32.97C91.16 32.97 91.55 33.01 91.93 33.09C92.31 33.15 92.62 33.23 92.86 33.33V28.47C93.06 28.41 93.38 28.35 93.82 28.29C94.26 28.21 94.71 28.17 95.17 28.17C95.61 28.17 96 28.2 96.34 28.26C96.7 28.32 97 28.44 97.24 28.62C97.48 28.8 97.66 29.05 97.78 29.37C97.9 29.67 97.96 30.07 97.96 30.57V44.79C97.96 45.73 97.52 46.48 96.64 47.04C96.06 47.42 95.31 47.75 94.39 48.03C93.47 48.33 92.41 48.48 91.21 48.48C89.91 48.48 88.74 48.3 87.7 47.94C86.68 47.58 85.81 47.06 85.09 46.38C84.39 45.7 83.85 44.89 83.47 43.95C83.11 42.99 82.93 41.91 82.93 40.71ZM91.45 36.96C90.37 36.96 89.54 37.27 88.96 37.89C88.38 38.51 88.09 39.45 88.09 40.71C88.09 41.95 88.36 42.89 88.9 43.53C89.44 44.15 90.22 44.46 91.24 44.46C91.6 44.46 91.92 44.41 92.2 44.31C92.5 44.19 92.73 44.06 92.89 43.92V37.32C92.49 37.08 92.01 36.96 91.45 36.96ZM101.018 29.37C101.018 28.61 101.268 27.97 101.768 27.45C102.288 26.93 102.968 26.67 103.808 26.67C104.648 26.67 105.318 26.93 105.818 27.45C106.338 27.97 106.598 28.61 106.598 29.37C106.598 30.13 106.338 30.77 105.818 31.29C105.318 31.81 104.648 32.07 103.808 32.07C102.968 32.07 102.288 31.81 101.768 31.29C101.268 30.77 101.018 30.13 101.018 29.37ZM106.358 47.97C106.138 48.01 105.808 48.06 105.368 48.12C104.948 48.2 104.518 48.24 104.078 48.24C103.638 48.24 103.238 48.21 102.878 48.15C102.538 48.09 102.248 47.97 102.008 47.79C101.768 47.61 101.578 47.37 101.438 47.07C101.318 46.75 101.258 46.34 101.258 45.84V33.63C101.478 33.59 101.798 33.54 102.218 33.48C102.658 33.4 103.098 33.36 103.538 33.36C103.978 33.36 104.368 33.39 104.708 33.45C105.068 33.51 105.368 33.63 105.608 33.81C105.848 33.99 106.028 34.24 106.148 34.56C106.288 34.86 106.358 35.26 106.358 35.76V47.97ZM116.715 32.97C117.855 32.97 118.885 33.12 119.805 33.42C120.745 33.7 121.535 34.07 122.175 34.53C122.575 34.81 122.885 35.12 123.105 35.46C123.345 35.8 123.465 36.24 123.465 36.78V47.28C123.465 48.34 123.265 49.25 122.865 50.01C122.465 50.79 121.915 51.43 121.215 51.93C120.535 52.45 119.725 52.83 118.785 53.07C117.865 53.31 116.875 53.43 115.815 53.43C113.995 53.43 112.565 53.18 111.525 52.68C110.485 52.2 109.965 51.41 109.965 50.31C109.965 49.85 110.055 49.44 110.235 49.08C110.435 48.74 110.655 48.48 110.895 48.3C111.475 48.62 112.125 48.89 112.845 49.11C113.585 49.33 114.345 49.44 115.125 49.44C116.205 49.44 117.065 49.26 117.705 48.9C118.345 48.54 118.665 47.96 118.665 47.16V46.68C117.845 47.04 116.845 47.22 115.665 47.22C114.765 47.22 113.905 47.09 113.085 46.83C112.285 46.55 111.575 46.13 110.955 45.57C110.355 44.99 109.865 44.25 109.485 43.35C109.125 42.45 108.945 41.38 108.945 40.14C108.945 38.92 109.135 37.86 109.515 36.96C109.915 36.06 110.455 35.32 111.135 34.74C111.835 34.14 112.655 33.7 113.595 33.42C114.555 33.12 115.595 32.97 116.715 32.97ZM118.575 37.32C118.435 37.24 118.225 37.16 117.945 37.08C117.685 37 117.355 36.96 116.955 36.96C115.975 36.96 115.235 37.24 114.735 37.8C114.255 38.34 114.015 39.12 114.015 40.14C114.015 41.3 114.255 42.14 114.735 42.66C115.235 43.16 115.865 43.41 116.625 43.41C117.445 43.41 118.095 43.22 118.575 42.84V37.32ZM126.506 29.37C126.506 28.61 126.756 27.97 127.256 27.45C127.776 26.93 128.456 26.67 129.296 26.67C130.136 26.67 130.806 26.93 131.306 27.45C131.826 27.97 132.086 28.61 132.086 29.37C132.086 30.13 131.826 30.77 131.306 31.29C130.806 31.81 130.136 32.07 129.296 32.07C128.456 32.07 127.776 31.81 127.256 31.29C126.756 30.77 126.506 30.13 126.506 29.37ZM131.846 47.97C131.626 48.01 131.296 48.06 130.856 48.12C130.436 48.2 130.006 48.24 129.566 48.24C129.126 48.24 128.726 48.21 128.366 48.15C128.026 48.09 127.736 47.97 127.496 47.79C127.256 47.61 127.066 47.37 126.926 47.07C126.806 46.75 126.746 46.34 126.746 45.84V33.63C126.966 33.59 127.286 33.54 127.706 33.48C128.146 33.4 128.586 33.36 129.026 33.36C129.466 33.36 129.856 33.39 130.196 33.45C130.556 33.51 130.856 33.63 131.096 33.81C131.336 33.99 131.516 34.24 131.636 34.56C131.776 34.86 131.846 35.26 131.846 35.76V47.97Z" fill="#A3A3A3"/>
</svg>
