<svg width="129" height="30" viewBox="0 0 129 30" fill="none" xmlns="http://www.w3.org/2000/svg">
<path d="M28.1045 15.0089V11.3466H29.7055V10.6562C29.7055 8.13792 30.3828 6.36757 31.7372 5.3435C32.9684 4.41148 34.8505 3.94629 37.3836 3.94629C37.64 3.94629 37.9063 3.95122 38.1841 3.96108L37.908 7.79273C36.1031 7.79273 34.9459 7.98834 34.438 8.37791C33.93 8.76749 33.6769 9.52691 33.6769 10.6545V11.3466H37.308V15.0089H33.6769V25.6869H29.7072V15.0089H28.1045Z" fill="white"/>
<path d="M39.3516 8.10027V4.12891H43.3213V8.09863H39.3516V8.10027ZM39.3516 25.6871V9.57639H43.3213V25.6871H39.3516Z" fill="white"/>
<path d="M45.3379 25.6869V9.57621H49.3076V11.1246C50.4254 10.0102 52.01 9.44307 54.063 9.42334L53.8017 13.6084C52.0576 13.6084 50.8725 13.9109 50.2478 14.5174C49.6216 15.124 49.3092 16.1152 49.3092 17.491V25.6869H45.3379Z" fill="white"/>
<path d="M53.9395 17.7164C53.9395 15.4085 54.7581 13.4491 56.3936 11.8382C58.0292 10.2273 60.028 9.42188 62.3868 9.42188C64.8689 9.42188 66.8957 10.252 68.4655 11.9138C70.0353 13.5757 70.8194 15.591 70.8194 17.9613C70.8194 18.2177 70.7996 18.5761 70.7585 19.038H57.9716C58.3102 20.0851 58.8823 20.8971 59.6877 21.4773C60.4932 22.0576 61.4959 22.3469 62.6958 22.3469C63.6805 22.3469 64.504 22.1825 65.1648 21.8538C65.8272 21.525 66.419 21.0072 66.9417 20.3004L70.2654 22.1316C68.5427 24.737 66.0179 26.0405 62.6942 26.0405C60.171 26.0405 58.0801 25.2498 56.4232 23.6701C54.7663 22.0905 53.9395 20.1064 53.9395 17.7164ZM58.0637 15.9164H66.6343C65.8338 14.0294 64.4185 13.0859 62.3868 13.0859C61.4433 13.0859 60.5819 13.3472 59.8012 13.8699C59.022 14.3927 58.4434 15.0748 58.0637 15.9164Z" fill="white"/>
<path d="M70.376 9.57617H74.3457L77.2535 20.0092L80.1778 9.57617H84.2396L87.1474 20.0092L90.0717 9.57617H93.8885L89.3254 25.6868H84.7524L82.1043 16.1003L79.4562 25.6868H74.9457L70.376 9.57617Z" fill="white"/>
<path d="M93.3779 17.7164C93.3779 15.4085 94.1965 13.4491 95.8321 11.8382C97.4676 10.2273 99.4665 9.42188 101.825 9.42188C104.307 9.42188 106.334 10.252 107.904 11.9138C109.474 13.5757 110.258 15.591 110.258 17.9613C110.258 18.2177 110.238 18.5761 110.197 19.038H97.4101C97.7487 20.0851 98.3208 20.8971 99.1262 21.4773C99.9317 22.0576 100.934 22.3469 102.134 22.3469C103.119 22.3469 103.942 22.1825 104.603 21.8538C105.266 21.525 105.857 21.0072 106.38 20.3004L109.704 22.1316C107.981 24.737 105.456 26.0405 102.133 26.0405C99.6095 26.0405 97.5186 25.2498 95.8617 23.6701C94.2048 22.0905 93.3779 20.1064 93.3779 17.7164ZM97.5022 15.9164H106.073C105.272 14.0294 103.857 13.0859 101.825 13.0859C100.882 13.0859 100.02 13.3472 99.2396 13.8699C98.4605 14.3927 97.8819 15.0748 97.5022 15.9164Z" fill="white"/>
<path d="M111.782 25.6871V4.12891H115.721V10.8684C117.085 9.9035 118.638 9.42187 120.382 9.42187C122.731 9.42187 124.727 10.2273 126.367 11.8382C128.008 13.4491 128.83 15.4085 128.83 17.7164C128.83 20.0045 128.005 21.9639 126.353 23.5945C124.701 25.2252 122.712 26.0405 120.382 26.0405C118.66 26.0405 117.105 25.5638 115.721 24.6087V25.6854H111.782V25.6871ZM117.09 14.4699C116.178 15.3937 115.721 16.4753 115.721 17.7164C115.721 18.9574 116.178 20.039 117.09 20.9628C118.002 21.8866 119.1 22.3469 120.382 22.3469C121.665 22.3469 122.763 21.885 123.675 20.9628C124.587 20.039 125.044 18.9574 125.044 17.7164C125.044 16.4753 124.587 15.3937 123.675 14.4699C122.763 13.5461 121.665 13.0859 120.382 13.0859C119.1 13.0859 118.004 13.5461 117.09 14.4699Z" fill="white"/>
<path d="M12.2112 5.1065L10.9596 9.94714L9.66853 0L0 19.1603L6.78932 24.9569L9.66853 20.7894L12.6043 24.9569L19.3003 19.1448L12.2112 5.1065Z" fill="#FF3374"/>
<path d="M2.7207 26.585H16.5808V30.0001H2.7207V26.585Z" fill="#FF3374"/>
</svg>
